<svg width="109" height="109" fill="none" xmlns="http://www.w3.org/2000/svg"><path d="M95.738 31.794a9.084 9.084 0 00-7.72-4.541H29.883L27.25 16.988a4.542 4.542 0 00-4.542-3.36h-9.083a4.542 4.542 0 000 9.083h5.632l12.535 46.597a4.542 4.542 0 004.541 3.361h40.875a4.54 4.54 0 004.043-2.498l14.896-29.793a9.082 9.082 0 00-.409-8.584zM74.392 63.586H39.785l-7.403-27.25h55.636l-13.626 27.25zM34.063 95.375a6.813 6.813 0 100-13.625 6.813 6.813 0 000 13.625zm45.417 0a6.812 6.812 0 100-13.625 6.812 6.812 0 000 13.625z" fill="#4AA838"/></svg>