<svg width="89" height="83" fill="none" xmlns="http://www.w3.org/2000/svg"><path d="M86.738 18.794a9.084 9.084 0 00-7.72-4.541H20.883L18.25 3.989A4.541 4.541 0 0013.708.627H4.625a4.542 4.542 0 100 9.083h5.632l12.535 46.598a4.542 4.542 0 004.541 3.36h40.875a4.54 4.54 0 004.043-2.498l14.896-29.793a9.082 9.082 0 00-.409-8.584zM65.392 50.586H30.785l-7.403-27.25h55.635l-13.624 27.25zM25.063 82.375a6.813 6.813 0 100-13.625 6.813 6.813 0 000 13.625zm45.417 0a6.812 6.812 0 100-13.625 6.812 6.812 0 000 13.625z" fill="#377BE1"/></svg>